<?xml version="1.0" encoding="utf-8"?>
<svg viewBox="0 0 500 500" xmlns="http://www.w3.org/2000/svg">
  <defs/>
  <text style="fill: rgb(1, 52, 116); font-family: Arial, sans-serif; font-size: 28px; font-weight: 700; white-space: pre;" transform="matrix(13.057231, 0, 0, 15.642857, -780.169922, -3879.651611)" x="60.074" y="273.822">TN</text>
  <text style="fill: rgb(2, 64, 142); font-family: Arial, sans-serif; font-size: 28px; font-weight: 700; white-space: pre;" transform="matrix(13.057231, 0, 0, 15.642857, -781.105835, -3878.834961)" x="60.074" y="273.822">TN</text>
  <text style="fill: rgb(3, 77, 170); font-family: Arial, sans-serif; font-size: 28px; font-weight: 700; white-space: pre;" transform="matrix(13.057231, 0, 0, 15.642857, -781.965881, -3877.908691)" x="60.074" y="273.822">TN</text>
  <text style="fill: rgb(2, 84, 185); font-family: Arial, sans-serif; font-size: 28px; font-weight: 700; white-space: pre;" transform="matrix(13.057231, 0, 0, 15.642857, -782.76001, -3876.982178)" x="60.074" y="273.822">TN</text>
  <text style="fill: rgb(3, 92, 200); font-family: Arial, sans-serif; font-size: 28px; font-weight: 700; white-space: pre;" transform="matrix(13.057231, 0, 0, 15.642857, -783.554077, -3876.055664)" x="60.074" y="273.822">TN</text>
  <text style="fill: rgb(5, 111, 239); font-family: Arial, sans-serif; font-size: 28px; font-weight: 700; white-space: pre;" transform="matrix(13.057231, 0, 0, 15.642857, -784.348083, -3875.063232)" x="60.074" y="273.822">TN</text>
  <text style="fill: rgb(29, 131, 255); font-family: Arial, sans-serif; font-size: 28px; font-weight: 700; white-space: pre;" transform="matrix(13.057231, 0, 0, 15.642857, -785.20874, -3874.104736)" x="60.074" y="273.822">TN</text>
  <text style="fill: rgb(29, 151, 255); font-family: Arial, sans-serif; font-size: 28px; font-weight: 700; white-space: pre;" transform="matrix(13.057231, 0, 0, 15.642857, -786.04303, -3873.123047)" x="60.074" y="273.822">TN</text>
  <text style="fill: rgb(29, 169, 255); font-family: Arial, sans-serif; font-size: 28px; font-weight: 700; white-space: pre;" transform="matrix(13.057231, 0, 0, 15.642857, -786.997681, -3872.168701)" x="60.074" y="273.822">TN</text>
</svg>