<?xml version="1.0" encoding="UTF-8"?>
<!DOCTYPE svg PUBLIC "-//W3C//DTD SVG 1.1//EN" "http://www.w3.org/Graphics/SVG/1.1/DTD/svg11.dtd">
<svg xmlns="http://www.w3.org/2000/svg" version="1.1" width="685px" height="685px" style="shape-rendering:geometricPrecision; text-rendering:geometricPrecision; image-rendering:optimizeQuality; fill-rule:evenodd; clip-rule:evenodd" xmlns:xlink="http://www.w3.org/1999/xlink">
<g><path style="opacity:0.999" fill="#9a1ffd" d="M 349.5,5.5 C 348.722,6.15561 348.056,6.98894 347.5,8C 348.828,68.0621 349.494,128.229 349.5,188.5C 349.167,248.167 348.833,307.833 348.5,367.5C 347.752,369.332 346.752,370.999 345.5,372.5C 345.855,373.522 346.522,374.189 347.5,374.5C 327.657,390.5 306.823,405.167 285,418.5C 284.333,417.833 283.667,417.167 283,416.5C 282.333,311.5 282.333,206.5 283,101.5C 283.53,84.7768 288.863,69.7768 299,56.5C 311.974,38.6922 325.141,21.0255 338.5,3.5C 341.103,2.43828 343.77,2.27161 346.5,3C 347.942,3.37675 348.942,4.21009 349.5,5.5 Z"/></g>
<g><path style="opacity:0.047" fill="#551888" d="M 372.5,72.5 C 373.833,101.492 374.5,130.826 374.5,160.5C 374.5,190.002 374.167,219.335 373.5,248.5C 372.501,190.002 372.168,131.336 372.5,72.5 Z"/></g>
<g><path style="opacity:0.396" fill="#6f28ac" d="M 442.5,109.5 C 443.476,138.135 443.809,166.802 443.5,195.5C 443.586,196.496 443.252,197.329 442.5,198C 443.5,198.333 444.5,198.667 445.5,199C 443.527,199.495 441.527,199.662 439.5,199.5C 439.333,169.831 439.5,140.165 440,110.5C 440.671,109.748 441.504,109.414 442.5,109.5 Z"/></g>
<g><path style="opacity:1" fill="#981ffc" d="M 442.5,109.5 C 441.504,109.414 440.671,109.748 440,110.5C 439.5,140.165 439.333,169.831 439.5,199.5C 441.527,199.662 443.527,199.495 445.5,199C 444.5,198.667 443.5,198.333 442.5,198C 443.252,197.329 443.586,196.496 443.5,195.5C 464.597,182.796 487.263,173.63 511.5,168C 514.482,167.502 517.482,167.335 520.5,167.5C 521.833,167.5 522.5,166.833 522.5,165.5C 533.838,165.333 545.172,165.5 556.5,166C 589.128,172.757 599.961,192.257 589,224.5C 582.278,243.946 572.945,261.946 561,278.5C 527.261,324.412 488.428,365.746 444.5,402.5C 443.25,402.423 442.417,401.756 442,400.5C 441.586,400.957 441.086,401.291 440.5,401.5C 440.167,411.833 439.833,422.167 439.5,432.5C 439.501,443.189 440.168,453.522 441.5,463.5C 441.001,473.825 438.168,483.492 433,492.5C 418.027,513.64 402.86,534.64 387.5,555.5C 377.292,558.481 372.459,554.481 373,543.5C 372.175,515.458 372.342,487.458 373.5,459.5C 372.998,458.479 372.332,458.312 371.5,459C 366.288,463.052 360.955,466.885 355.5,470.5C 355.582,468.748 354.749,467.748 353,467.5C 349.859,468.807 348.026,471.14 347.5,474.5C 348.819,491.349 349.486,508.349 349.5,525.5C 349.333,542.167 349.167,558.833 349,575.5C 347.299,577.024 347.799,578.024 350.5,578.5C 351.182,577.757 351.849,577.091 352.5,576.5C 352.032,588.739 349.198,600.405 344,611.5C 328.991,633.519 313.491,655.186 297.5,676.5C 290.811,679.883 285.978,678.216 283,671.5C 282.833,619.497 282.333,567.497 281.5,515.5C 275.243,519.547 268.743,523.213 262,526.5C 261.667,563.5 261.333,600.5 261,637.5C 256.197,645.819 249.697,647.486 241.5,642.5C 227.54,630.874 214.206,618.541 201.5,605.5C 198.743,600.318 196.243,594.985 194,589.5C 193.007,578.185 192.173,566.852 191.5,555.5C 172.696,562.297 153.196,566.297 133,567.5C 122.291,567.079 112.125,564.579 102.5,560C 97.1139,556.393 93.2806,551.559 91,545.5C 90.1686,535.455 90.5019,525.455 92,515.5C 97.4968,499.683 104.163,484.349 112,469.5C 134.568,432.103 161.068,397.769 191.5,366.5C 192.337,366.611 193.337,366.944 194.5,367.5C 195.667,320.504 195.833,273.504 195,226.5C 194.8,228.32 193.966,229.653 192.5,230.5C 192.32,214.897 196.487,200.563 205,187.5C 218.387,169.779 231.387,151.779 244,133.5C 249.325,125.885 254.992,125.552 261,132.5C 261.833,233.168 261.667,333.835 260.5,434.5C 240.465,446.683 219.798,457.516 198.5,467C 196.011,467.941 194.011,467.441 192.5,465.5C 193.15,465.196 193.817,464.863 194.5,464.5C 195.833,440.833 195.833,417.167 194.5,393.5C 193.081,394.005 192.415,395.005 192.5,396.5C 170.369,418.148 152.202,442.815 138,470.5C 134.182,478.081 132.515,486.081 133,494.5C 133.69,497.196 135.19,499.363 137.5,501C 144.196,504.141 151.196,505.141 158.5,504C 173.911,501.13 188.911,496.797 203.5,491C 298.216,446.165 382.049,385.665 455,309.5C 471.323,291.845 485.323,272.511 497,251.5C 509.407,225.109 501.24,213.276 472.5,216C 462.37,218.406 452.703,221.906 443.5,226.5C 443.062,226.565 442.728,226.399 442.5,226C 444.645,225.257 444.811,224.424 443,223.5C 442.05,224.022 441.216,224.689 440.5,225.5C 439.167,245.5 439.167,265.5 440.5,285.5C 441.182,286.243 441.849,286.909 442.5,287.5C 421.434,310.401 398.934,331.734 375,351.5C 373.536,350.541 372.703,349.208 372.5,347.5C 373.133,314.606 373.467,281.606 373.5,248.5C 374.167,219.335 374.5,190.002 374.5,160.5C 374.5,130.826 373.833,101.492 372.5,72.5C 372.858,67.8904 372.858,63.3904 372.5,59C 373.945,47.218 380.278,43.218 391.5,47C 403.167,57 414.833,67 426.5,77C 435.445,86.0575 440.779,96.8909 442.5,109.5 Z M 293.5,543.5 C 297.833,543.5 302.167,543.5 306.5,543.5C 306.5,545.5 306.5,547.5 306.5,549.5C 304.61,549.297 303.11,549.963 302,551.5C 300.529,593.971 299.529,593.971 299,551.5C 297.556,549.845 295.722,549.178 293.5,549.5C 293.5,547.5 293.5,545.5 293.5,543.5 Z M 338.5,555.5 C 338.832,564.857 338.498,574.19 337.5,583.5C 336.914,583.291 336.414,582.957 336,582.5C 334.814,578.142 333.648,573.808 332.5,569.5C 332.5,568.5 332.5,567.5 332.5,566.5C 333.858,567.626 335.192,567.626 336.5,566.5C 337.374,564.253 337.708,561.92 337.5,559.5C 337.334,554.156 337.501,548.823 338,543.5C 338.499,547.486 338.666,551.486 338.5,555.5 Z M 331.5,562.5 C 331.167,562.5 330.833,562.5 330.5,562.5C 328.99,561.272 327.49,561.272 326,562.5C 325.831,569.524 325.331,576.524 324.5,583.5C 323.167,570.167 323.167,556.833 324.5,543.5C 327.422,549.598 329.755,555.931 331.5,562.5 Z"/></g>
<g><path style="opacity:0.007" fill="#000000" d="M 522.5,165.5 C 522.5,166.833 521.833,167.5 520.5,167.5C 520.833,166.5 521.5,165.833 522.5,165.5 Z"/></g>
<g><path style="opacity:0.359" fill="#9d2df2" d="M 349.5,5.5 C 350.966,6.347 351.8,7.68034 352,9.5C 352.667,129.833 352.667,250.167 352,370.5C 350.791,372.184 349.291,373.517 347.5,374.5C 346.522,374.189 345.855,373.522 345.5,372.5C 346.752,370.999 347.752,369.332 348.5,367.5C 348.833,307.833 349.167,248.167 349.5,188.5C 349.494,128.229 348.828,68.0621 347.5,8C 348.056,6.98894 348.722,6.15561 349.5,5.5 Z"/></g>
<g><path style="opacity:0.786" fill="#6d27a8" d="M 443.5,226.5 C 443.798,246.867 443.465,267.2 442.5,287.5C 441.849,286.909 441.182,286.243 440.5,285.5C 439.167,265.5 439.167,245.5 440.5,225.5C 441.216,224.689 442.05,224.022 443,223.5C 444.811,224.424 444.645,225.257 442.5,226C 442.728,226.399 443.062,226.565 443.5,226.5 Z"/></g>
<g><path style="opacity:0.278" fill="#9131ef" d="M 191.5,366.5 C 192.495,321.239 192.828,275.905 192.5,230.5C 193.966,229.653 194.8,228.32 195,226.5C 195.833,273.504 195.667,320.504 194.5,367.5C 193.337,366.944 192.337,366.611 191.5,366.5 Z"/></g>
<g><path style="opacity:0.302" fill="#9630ea" d="M 192.5,465.5 C 192.5,442.5 192.5,419.5 192.5,396.5C 192.415,395.005 193.081,394.005 194.5,393.5C 195.833,417.167 195.833,440.833 194.5,464.5C 193.817,464.863 193.15,465.196 192.5,465.5 Z"/></g>
<g><path style="opacity:0.572" fill="#7429b4" d="M 444.5,402.5 C 443.68,420.427 443.18,438.427 443,456.5C 442.814,459.036 442.314,461.369 441.5,463.5C 440.168,453.522 439.501,443.189 439.5,432.5C 439.833,422.167 440.167,411.833 440.5,401.5C 441.086,401.291 441.586,400.957 442,400.5C 442.417,401.756 443.25,402.423 444.5,402.5 Z"/></g>
<g><path style="opacity:0.004" fill="#000000" d="M 363.5,474.5 C 365.975,474.747 365.975,475.413 363.5,476.5C 362.537,476.03 362.537,475.363 363.5,474.5 Z"/></g>
<g><path style="opacity:0.464" fill="#992bf0" d="M 355.5,470.5 C 354.542,470.953 353.708,471.619 353,472.5C 352.5,507.165 352.333,541.832 352.5,576.5C 351.849,577.091 351.182,577.757 350.5,578.5C 347.799,578.024 347.299,577.024 349,575.5C 349.167,558.833 349.333,542.167 349.5,525.5C 349.486,508.349 348.819,491.349 347.5,474.5C 348.026,471.14 349.859,468.807 353,467.5C 354.749,467.748 355.582,468.748 355.5,470.5 Z"/></g>
<g><path style="opacity:0.973" fill="#9425ee" d="M 337.5,559.5 C 337.708,561.92 337.374,564.253 336.5,566.5C 335.192,567.626 333.858,567.626 332.5,566.5C 332.167,565.167 331.833,563.833 331.5,562.5C 329.755,555.931 327.422,549.598 324.5,543.5C 323.167,556.833 323.167,570.167 324.5,583.5C 325.331,576.524 325.831,569.524 326,562.5C 327.49,561.272 328.99,561.272 330.5,562.5C 330.721,565.067 331.388,567.401 332.5,569.5C 333.648,573.808 334.814,578.142 336,582.5C 336.414,582.957 336.914,583.291 337.5,583.5C 338.498,574.19 338.832,564.857 338.5,555.5C 339.166,552.972 339.832,550.306 340.5,547.5C 341.499,557.478 341.832,567.478 341.5,577.5C 342.833,577.5 344.167,577.5 345.5,577.5C 345.649,578.552 345.483,579.552 345,580.5C 343.989,579.663 342.822,579.33 341.5,579.5C 341.5,582.167 341.5,584.833 341.5,587.5C 336.915,586.987 332.582,587.654 328.5,589.5C 325.661,588.462 322.995,587.129 320.5,585.5C 320.138,573.766 319.138,562.266 317.5,551C 318.006,548.956 318.339,546.956 318.5,545C 317.18,542.108 314.846,540.775 311.5,541C 314.146,540.503 316.813,540.336 319.5,540.5C 319.281,539.325 319.614,538.325 320.5,537.5C 323.659,540.207 327.326,541.541 331.5,541.5C 331.329,544.797 331.995,545.131 333.5,542.5C 334.495,548.128 334.829,553.794 334.5,559.5C 335.5,559.5 336.5,559.5 337.5,559.5 Z M 331.5,562.5 C 331.167,562.5 330.833,562.5 330.5,562.5C 328.99,561.272 327.49,561.272 326,562.5C 325.831,569.524 325.331,576.524 324.5,583.5C 323.167,570.167 323.167,556.833 324.5,543.5C 327.422,549.598 329.755,555.931 331.5,562.5 Z"/></g>
<g><path style="opacity:0.004" fill="#000000" d="M 330.5,562.5 C 330.833,562.5 331.167,562.5 331.5,562.5C 331.833,563.833 332.167,565.167 332.5,566.5C 332.5,567.5 332.5,568.5 332.5,569.5C 331.388,567.401 330.721,565.067 330.5,562.5 Z"/></g>
<g><path style="opacity:0.004" fill="#0e0e0e" d="M 278.5,683.5 C 283.316,682.35 288.316,682.184 293.5,683C 288.511,683.499 283.511,683.666 278.5,683.5 Z"/></g>
<g><path style="opacity:0.004" fill="#000000" d="M 297.5,683.5 C 298.251,682.427 299.251,682.26 300.5,683C 299.552,683.483 298.552,683.649 297.5,683.5 Z"/></g>
<g><path style="opacity:0.004" fill="#000000" d="M 302.5,683.5 C 302.897,682.475 303.563,682.308 304.5,683C 303.906,683.464 303.239,683.631 302.5,683.5 Z"/></g>
</svg>
