<?xml version="1.0" encoding="utf-8"?>
<svg viewBox="0 0 500 500" xmlns="http://www.w3.org/2000/svg">
  <defs/>
  <text style="fill: rgb(69, 1, 129); font-family: Arial, sans-serif; font-size: 28px; font-weight: 700; white-space: pre;" transform="matrix(13.057231, 0, 0, 15.642857, -780.169922, -3879.651611)" x="60.074" y="273.822">TN</text>
  <text style="fill: rgb(84, 2, 145); font-family: Arial, sans-serif; font-size: 28px; font-weight: 700; white-space: pre;" transform="matrix(13.057231, 0, 0, 15.642857, -781.105835, -3878.834961)" x="60.074" y="273.822">TN</text>
  <text style="fill: rgb(100, 3, 163); font-family: Arial, sans-serif; font-size: 28px; font-weight: 700; white-space: pre;" transform="matrix(13.057231, 0, 0, 15.642857, -781.965881, -3877.908691)" x="60.074" y="273.822">TN</text>
  <text style="fill: rgb(104, 2, 168); font-family: Arial, sans-serif; font-size: 28px; font-weight: 700; white-space: pre;" transform="matrix(13.057231, 0, 0, 15.642857, -782.76001, -3876.982178)" x="60.074" y="273.822">TN</text>
  <text style="fill: rgb(113, 3, 178); font-family: Arial, sans-serif; font-size: 28px; font-weight: 700; white-space: pre;" transform="matrix(13.057231, 0, 0, 15.642857, -783.554077, -3876.055664)" x="60.074" y="273.822">TN</text>
  <text style="fill: rgb(133, 5, 196); font-family: Arial, sans-serif; font-size: 28px; font-weight: 700; white-space: pre;" transform="matrix(13.057231, 0, 0, 15.642857, -784.348083, -3875.063232)" x="60.074" y="273.822">TN</text>
  <text style="fill: rgb(167, 29, 212); font-family: Arial, sans-serif; font-size: 28px; font-weight: 700; white-space: pre;" transform="matrix(13.057231, 0, 0, 15.642857, -785.20874, -3874.104736)" x="60.074" y="273.822">TN</text>
  <text style="fill: rgb(173, 29, 216); font-family: Arial, sans-serif; font-size: 28px; font-weight: 700; white-space: pre;" transform="matrix(13.057231, 0, 0, 15.642857, -786.04303, -3873.123047)" x="60.074" y="273.822">TN</text>
  <text style="fill: rgb(180, 29, 217); font-family: Arial, sans-serif; font-size: 28px; font-weight: 700; white-space: pre;" transform="matrix(13.057231, 0, 0, 15.642857, -786.997681, -3872.168701)" x="60.074" y="273.822">TN</text>
</svg>
